<?xml version="1.0" encoding="UTF-8"?>
<svg width="64px" height="64px" viewBox="0 0 64 64" xmlns="http://www.w3.org/2000/svg">
  <g fill="#1DB954">
    <path d="M27 4c-2 0-3.82.68-5.28 1.8-2.12 1.63-3.68 4.34-4.47 7.75-.97 4.2-1.5 9.83-1.5 16.05 0 4.75.28 9.06.85 12.85.57 3.8 1.44 7.06 2.65 9.55 1.22 2.5 2.75 4.27 4.75 5.16.5.22 1.02.36 1.6.42.57.07 1.17.07 1.83 0 1.33-.13 2.76-.5 4.35-1.1 3.16-1.2 6.87-3.4 11.08-6.47.3-.22.57-.46.85-.7.04-.03.08-.06.12-.1.34-.28.65-.57.97-.87.16-.15.32-.3.47-.47.15-.16.3-.32.43-.48 1.03-1.2 1.73-2.54 2.17-3.98.43-1.44.6-2.97.6-4.58 0-3.23-.68-6.84-2.14-10.7-1.46-3.88-3.73-8-7-12.2-2.32-2.96-4.2-5.23-5.87-6.72-1.67-1.5-3.14-2.2-4.65-2.2-.37 0-.76.04-1.16.14C27.53 4.03 27.27 4 27 4Zm0 4c.24 0 .37.02.4.02.05-.2.07-.2.1-.2.16 0 .92.24 2.25 1.43 1.33 1.2 3.06 3.28 5.25 6.05 3.1 3.96 5.2 7.83 6.5 11.26 1.3 3.44 1.88 6.55 1.88 9.04 0 1.27-.13 2.3-.4 3.22-.28.92-.72 1.68-1.35 2.4-.08.07-.14.14-.2.2-.17.2-.36.4-.56.58-.1.1-.22.18-.33.27-.22.2-.46.4-.7.58-.03.03-.06.06-.1.1-.26.2-.52.42-.8.64-3.96 2.87-7.32 4.84-10 5.92-1.34.54-2.5.86-3.4.96-.45.04-.8.04-1.06 0-.26-.03-.46-.1-.65-.2-.98-.44-2.1-1.7-3.15-3.8-1.05-2.1-1.87-5.12-2.4-8.7-.55-3.57-.8-7.7-.8-12.26 0-5.95.5-11.25 1.4-15.17.46-1.97 1.02-3.5 1.72-4.52.35-.5.74-.88 1.2-1.14C26.1 8.12 26.6 8 27 8Z"/>
    <path d="M38 4c-2 0-3.82.68-5.28 1.8-2.12 1.63-3.68 4.34-4.47 7.75-.97 4.2-1.5 9.83-1.5 16.05 0 4.75.28 9.06.85 12.85.57 3.8 1.44 7.06 2.65 9.55 1.22 2.5 2.75 4.27 4.75 5.16.5.22 1.02.36 1.6.42.57.07 1.17.07 1.83 0 1.33-.13 2.76-.5 4.35-1.1 3.16-1.2 6.87-3.4 11.08-6.47.3-.22.57-.46.85-.7.04-.03.08-.06.12-.1.34-.28.65-.57.97-.87.16-.15.32-.3.47-.47.15-.16.3-.32.43-.48 1.03-1.2 1.73-2.54 2.17-3.98.43-1.44.6-2.97.6-4.58 0-3.23-.68-6.84-2.14-10.7-1.46-3.88-3.73-8-7-12.2-2.32-2.96-4.2-5.23-5.87-6.72-1.67-1.5-3.14-2.2-4.65-2.2-.37 0-.76.04-1.16.14C38.53 4.03 38.27 4 38 4Zm0 4c.24 0 .37.02.4.02.05-.2.07-.2.1-.2.16 0 .92.24 2.25 1.43 1.33 1.2 3.06 3.28 5.25 6.05 3.1 3.96 5.2 7.83 6.5 11.26 1.3 3.44 1.88 6.55 1.88 9.04 0 1.27-.13 2.3-.4 3.22-.28.92-.72 1.68-1.35 2.4-.08.07-.14.14-.2.2-.17.2-.36.4-.56.58-.1.1-.22.18-.33.27-.22.2-.46.4-.7.58-.03.03-.06.06-.1.1-.26.2-.52.42-.8.64-3.96 2.87-7.32 4.84-10 5.92-1.34.54-2.5.86-3.4.96-.45.04-.8.04-1.06 0-.26-.03-.46-.1-.65-.2-.98-.44-2.1-1.7-3.15-3.8-1.05-2.1-1.87-5.12-2.4-8.7-.55-3.57-.8-7.7-.8-12.26 0-5.95.5-11.25 1.4-15.17.46-1.97 1.02-3.5 1.72-4.52.35-.5.74-.88 1.2-1.14C37.1 8.12 37.6 8 38 8Z" transform="translate(-10, 0)"/>
  </g>
</svg>