<?xml version="1.0" encoding="UTF-8"?>
<svg width="64px" height="64px" viewBox="0 0 64 64" xmlns="http://www.w3.org/2000/svg">
  <g fill="#1DB954">
    <path d="M32 2C15.432 2 2 15.432 2 32s13.432 30 30 30 30-13.432 30-30S48.568 2 32 2zm0 4c14.337 0 26 11.663 26 26S46.337 58 32 58 6 46.337 6 32 17.663 6 32 6z"/>
    <path d="M32 14c-1.105 0-2 .895-2 2v6.17c-3.39.085-6.624 1.49-9 4l-4.586-4.584-1.414 1.414L19.584 27.584c-2.51 2.376-3.914 5.612-4 9H9c-1.105 0-2 .895-2 2s.895 2 2 2h6.17c.085 3.39 1.49 6.624 4 9L14.586 54.17l1.414 1.414 4.586-4.584c2.376 2.51 5.612 3.914 9 4V61c0 1.105.895 2 2 2s2-.895 2-2v-6c3.39-.085 6.624-1.49 9-4l4.586 4.584 1.414-1.414-4.584-4.586c2.51-2.376 3.914-5.612 4-9H55c1.105 0 2-.895 2-2s-.895-2-2-2h-6.17c-.085-3.39-1.49-6.624-4-9l4.584-4.586-1.414-1.414-4.586 4.584c-2.376-2.51-5.612-3.914-9-4V16c0-1.105-.895-2-2-2zm0 12c6.075 0 11 4.925 11 11s-4.925 11-11 11-11-4.925-11-11 4.925-11 11-11z"/>
  </g>
</svg>