<?xml version="1.0" encoding="UTF-8"?>
<svg xmlns="http://www.w3.org/2000/svg" viewBox="0 0 1000 500" width="1000" height="500">
  <rect width="1000" height="500" fill="#000" opacity="0.8" />
  <g fill="none" stroke="#1DB954" stroke-width="1.5" opacity="0.8">
    <!-- Simplified world map outline -->
    <!-- North America -->
    <path d="M170,180 C180,150 190,120 210,110 C230,100 250,90 270,100 C290,110 310,120 320,130 C330,140 340,150 350,145 C360,140 370,130 380,120 C390,110 400,100 410,105 C420,110 430,120 425,130 C420,140 415,150 410,160 C405,170 400,180 390,185 C380,190 370,195 360,200 C350,205 340,210 330,215 C320,220 310,225 300,230 C290,235 280,240 275,245 C270,250 265,255 260,250 C255,245 250,240 240,235 C230,230 220,225 210,220 C200,215 190,210 185,200 C180,190 175,185 170,180 Z" />
    <!-- South America -->
    <path d="M290,250 C300,245 310,240 320,235 C330,230 340,225 345,230 C350,235 355,240 350,250 C345,260 340,270 335,280 C330,290 325,300 320,310 C315,320 310,330 305,340 C300,350 295,360 290,370 C285,380 280,390 275,380 C270,370 265,360 260,350 C255,340 250,330 245,320 C240,310 235,300 240,290 C245,280 250,270 255,265 C260,260 265,255 270,260 C275,265 280,270 285,265 C290,260 295,255 290,250 Z" />
    <!-- Europe -->
    <path d="M450,150 C460,145 470,140 480,135 C490,130 500,125 510,120 C520,115 530,110 540,115 C550,120 560,125 565,130 C570,135 575,140 570,145 C565,150 560,155 555,160 C550,165 545,170 540,175 C535,180 530,185 525,190 C520,195 515,200 510,205 C505,210 500,215 495,210 C490,205 485,200 480,195 C475,190 470,185 465,180 C460,175 455,170 450,165 C445,160 440,155 445,150 C450,145 455,140 450,150 Z" />
    <!-- Asia -->
    <path d="M550,150 C560,145 570,140 580,135 C590,130 600,125 610,120 C620,115 630,110 640,115 C650,120 660,125 670,130 C680,135 690,140 700,145 C710,150 720,155 730,150 C740,145 750,140 760,135 C770,130 780,125 790,120 C800,115 810,110 815,120 C820,130 825,140 820,150 C815,160 810,170 805,180 C800,190 795,200 790,210 C785,220 780,230 775,240 C770,250 765,260 760,250 C755,240 750,230 745,220 C740,210 735,200 730,190 C725,180 720,170 715,160 C710,150 705,140 700,145 C695,150 690,155 685,150 C680,145 675,140 670,135 C665,130 660,125 655,130 C650,135 645,140 640,145 C635,150 630,155 625,160 C620,165 615,170 610,175 C605,180 600,185 595,180 C590,175 585,170 580,165 C575,160 570,155 565,150 C560,145 555,140 550,150 Z" />
    <!-- Africa -->
    <path d="M500,220 C510,215 520,210 530,205 C540,200 550,195 560,200 C570,205 580,210 590,215 C600,220 610,225 620,230 C630,235 640,240 635,250 C630,260 625,270 620,280 C615,290 610,300 605,310 C600,320 595,330 590,340 C585,350 580,360 575,350 C570,340 565,330 560,320 C555,310 550,300 545,290 C540,280 535,270 530,265 C525,260 520,255 515,250 C510,245 505,240 500,235 C495,230 490,225 495,220 C500,215 505,210 500,220 Z" />
    <!-- Australia -->
    <path d="M800,300 C810,295 820,290 830,285 C840,280 850,275 860,280 C870,285 880,290 875,300 C870,310 865,320 860,330 C855,340 850,350 845,345 C840,340 835,335 830,330 C825,325 820,320 815,315 C810,310 805,305 800,300 Z" />
  </g>
</svg>